#N canvas 1837 346 591 300 10;
#X obj 137 73 osc~ 440;
#X obj 137 121 *~ 0.5;
#X obj 137 178 dac~;
#X msg 137 26 proviamo con la supercazzola prematurata con scappellamento
a sinistra;
#X text 267 113 tastooma;
#X connect 0 0 1 0;
#X connect 1 0 2 0;
#X connect 1 0 2 1;
#X connect 3 0 0 0;
